<?xml version="1.0" encoding="utf-8"?>
<!-- Generator: Adobe Illustrator 24.0.1, SVG Export Plug-In . SVG Version: 6.00 Build 0)  -->
<svg version="1.1" id="Layer_1" xmlns="http://www.w3.org/2000/svg" xmlns:xlink="http://www.w3.org/1999/xlink" x="0px" y="0px"
	 viewBox="0 0 65 65" style="enable-background:new 0 0 65 65;" xml:space="preserve">
<style type="text/css">
	.st0{fill-rule:evenodd;clip-rule:evenodd;fill:#F9F4EE;}
</style>
<path class="st0" d="M35.4,15.8c0,6.1,0,5.9-0.8,6.7c-0.5,0.5-1.1,0.7-2,0.7c-0.9,0-1.4-0.2-1.9-0.6c-1.1-1.1-0.9-3.3,0.5-5.3
	l0.4-0.6l-0.2-0.1c-0.1-0.1-1.3-0.8-2.7-1.5l-2.5-1.4L26,14c-0.7,0.9-1.6,2.5-2,3.7c-0.8,2.3-0.6,4.8,0.3,6.9c1.1,2.4,3.1,4.1,5.8,5
	c0.8,0.2,0.9,0.3,2.4,0.3c1.7,0,2.1-0.1,3.4-0.5c2.6-1,4.8-3.5,5.5-6.3c0.3-1,0.3-2.1,0.3-7.3l0-5.2h-3.2h-3.2L35.4,15.8z
	 M44.2,17.7v7.2h3.9h3.9v-7.2v-7.2h-3.9h-3.9V17.7z M44.7,28.3c-1.3,1.3-2.3,2.3-2.2,2.3c0.1,0,0.6,0.3,1.1,0.7
	c1.1,0.7,2.3,1.9,2.8,2.6c0.7,1.1,0.9,2.4,0.5,2.9c-0.4,0.5-0.4,0.5-2.9,0.5l-2.3,0l0,3.2l0,3.2h5.3h5.3v-6.2v-6.2l-0.3-0.5
	c-0.8-1.4-2.5-3.2-3.9-4.2c-0.4-0.3-0.8-0.6-0.8-0.6C47.1,26,46,27.1,44.7,28.3z M21,29.3c0,2.5-0.1,3.6-0.5,4.8
	c-0.6,1.8-1.8,3-3.6,3.5c-0.4,0.1-1.1,0.2-2.3,0.2l-1.7,0v3v3H18h5.1l0.6-0.5c2.8-2.2,4.4-5.8,4.9-10.6c0.2-1.9,0.3-1.6-0.8-2.1
	c-1.5-0.7-2.7-1.6-3.7-2.8l-0.5-0.6h-1.4H21L21,29.3z M38.7,29.8c-0.5,0.4-1.7,1-2.6,1.3c-1.2,0.4-2.3,0.6-3.6,0.6h-1.2v6.1v6.1h3.9
	h3.9v-7.1c0-3.9,0-7.1-0.1-7.1C39.1,29.5,38.9,29.6,38.7,29.8z M14.2,49.9c-0.8,2.1-1.4,3.8-1.5,3.9c0,0.1,0.3,0.1,1.3,0.1h1.3
	l0.2-0.5l0.2-0.5l1.3,0l1.3,0l0.2,0.5l0.2,0.5l1.3,0c0.7,0,1.3,0,1.3,0c0-0.1-1.5-4.1-2.6-7.1l-0.2-0.6H17h-1.4L14.2,49.9z
	 M21.8,50.1V54h3h3v-1.1v-1.1h-1.6h-1.6l0-2.7l0-2.7l-1.3,0l-1.3,0V50.1z M28.4,50.1V54h2c1.1,0,2.2,0,2.5-0.1
	c1.8-0.4,2.9-1.8,2.9-3.8c0-1.5-0.6-2.8-1.7-3.4c-0.8-0.4-1.4-0.5-3.7-0.5l-2,0V50.1z M38.5,46.2c0,0-0.7,1.7-1.4,3.7
	s-1.4,3.7-1.4,3.8c-0.1,0.1,0,0.2,1.3,0.2h1.3l0.2-0.5l0.2-0.5h1.3h1.3l0.1,0.5l0.1,0.5l1.3,0l1.3,0l-0.8-2.1C43,50.7,42.4,49,42,48
	l-0.7-1.8l-1.4,0C39.2,46.2,38.6,46.2,38.5,46.2z M44.7,50.1V54H46h1.3v-1.1v-1.1h0.3c0.2,0,0.4,0.1,1.1,1.1l0.8,1.1h1.4
	c1.1,0,1.4,0,1.3-0.1c0-0.1-0.4-0.6-0.9-1.3c-0.5-0.6-0.9-1.2-0.9-1.2c0-0.1,0.1-0.2,0.3-0.3c0.8-0.5,1.1-1.9,0.8-3
	c-0.2-0.7-0.8-1.3-1.5-1.5c-0.5-0.2-0.7-0.2-2.9-0.2l-2.4,0V50.1z M48.7,48.4c0.1,0,0.3,0.2,0.3,0.4c0.1,0.3,0.1,0.3,0,0.5
	c-0.2,0.3-0.5,0.5-1.1,0.5l-0.5,0V49v-0.7h0.5C48.2,48.3,48.5,48.3,48.7,48.4z M32.5,48.5c0.5,0.3,0.6,0.7,0.6,1.5
	c0,1.2-0.4,1.7-1.5,1.7l-0.6,0v-1.7v-1.7l0.6,0C32,48.4,32.3,48.4,32.5,48.5z M17.6,50.8l0.1,0.3H17c-0.5,0-0.7,0-0.7-0.1
	c0.2-0.5,0.6-1.9,0.6-2.1C16.9,48.6,17.5,50.2,17.6,50.8z M40,49c0,0.1,0.1,0.6,0.3,1.1l0.3,1h-0.7h-0.7l0.2-0.7
	c0.1-0.4,0.3-0.9,0.3-1.1C39.9,48.8,40,48.7,40,49z"/>
</svg>
